<?xml version="1.0" encoding="UTF-8" standalone="no"?>
<!-- Created with Inkscape (http://www.inkscape.org/) -->

<svg
   xmlns:dc="http://purl.org/dc/elements/1.1/"
   xmlns:cc="http://creativecommons.org/ns#"
   xmlns:rdf="http://www.w3.org/1999/02/22-rdf-syntax-ns#"
   xmlns:svg="http://www.w3.org/2000/svg"
   xmlns="http://www.w3.org/2000/svg"
   xmlns:sodipodi="http://sodipodi.sourceforge.net/DTD/sodipodi-0.dtd"
   xmlns:inkscape="http://www.inkscape.org/namespaces/inkscape"
   width="16"
   height="16"
   id="svg2"
   version="1.1"
   inkscape:version="0.48.4 r9939"
   sodipodi:docname="terminator-custom-commands.svg"
   inkscape:export-filename="/home/sboddy/Development/terminator/terminator-trunk-ssh/data/icons/HighContrast/48x48/apps/terminator-custom-commands.png"
   inkscape:export-xdpi="270"
   inkscape:export-ydpi="270">
  <defs
     id="defs4">
    <clipPath
       clipPathUnits="userSpaceOnUse"
       id="clipPath3776">
      <rect
         style="fill:#ffffff;fill-opacity:1;stroke:none"
         id="rect3778"
         width="4.7600646"
         height="3.3320534"
         x="-7.8439369"
         y="1042.3563" />
    </clipPath>
  </defs>
  <sodipodi:namedview
     id="base"
     pagecolor="#ffffff"
     bordercolor="#666666"
     borderopacity="1.0"
     inkscape:pageopacity="0"
     inkscape:pageshadow="2"
     inkscape:zoom="22.627417"
     inkscape:cx="13.368211"
     inkscape:cy="5.9507832"
     inkscape:document-units="px"
     inkscape:current-layer="layer1"
     showgrid="true"
     inkscape:window-width="1920"
     inkscape:window-height="1006"
     inkscape:window-x="0"
     inkscape:window-y="24"
     inkscape:window-maximized="1"
     inkscape:snap-bbox="true"
     inkscape:snap-nodes="false">
    <inkscape:grid
       type="xygrid"
       id="grid2985"
       empspacing="5"
       visible="true"
       enabled="true"
       snapvisiblegridlinesonly="true" />
  </sodipodi:namedview>
  <metadata
     id="metadata7">
    <rdf:RDF>
      <cc:Work
         rdf:about="">
        <dc:format>image/svg+xml</dc:format>
        <dc:type
           rdf:resource="http://purl.org/dc/dcmitype/StillImage" />
        <dc:title></dc:title>
      </cc:Work>
    </rdf:RDF>
  </metadata>
  <g
     inkscape:label="Layer 1"
     inkscape:groupmode="layer"
     id="layer1"
     transform="translate(0,-1036.3622)">
    <rect
       style="opacity:1;fill:#ffffff;fill-opacity:1;stroke:none"
       id="rect3116"
       width="16"
       height="16"
       x="0"
       y="0"
       transform="translate(0,1036.3622)"
       ry="2"
       rx="2" />
    <rect
       style="fill:#000000;fill-opacity:1;stroke:none"
       id="rect3886"
       width="14"
       height="14"
       x="1"
       y="1"
       transform="translate(0,1036.3622)"
       rx="1"
       ry="1" />
    <rect
       style="fill:#ffffff;fill-opacity:1;stroke:none"
       id="rect3888"
       width="12"
       height="12"
       x="2"
       y="2"
       transform="translate(0,1036.3622)"
       rx="0"
       ry="0" />
    <rect
       style="fill:#000000;fill-opacity:1;stroke:none"
       id="rect4128"
       width="12"
       height="1"
       x="2"
       y="4"
       transform="translate(0,1036.3622)" />
    <rect
       style="fill:#000000;fill-opacity:1;stroke:none"
       id="rect4130"
       width="1"
       height="2"
       x="5"
       y="2"
       transform="translate(0,1036.3622)" />
    <rect
       style="fill:#000000;fill-opacity:1;stroke:none"
       id="rect4132"
       width="1"
       height="2"
       x="10"
       y="2"
       transform="translate(0,1036.3622)" />
    <path
       style="fill:#000000;stroke:none;stroke-width:1px;stroke-linecap:butt;stroke-linejoin:miter;stroke-opacity:1;fill-opacity:1"
       d="m 6,4 4,-2 0,2 z"
       id="path4134"
       inkscape:connector-curvature="0"
       transform="translate(0,1036.3622)" />
    <rect
       style="fill:#000000;fill-opacity:1;stroke:none"
       id="rect4136"
       width="3"
       height="2"
       x="2"
       y="2"
       transform="translate(0,1036.3622)"
       rx="0"
       ry="0" />
    <g
       id="g3769"
       transform="matrix(2.1008118,0,0,2.1008118,19.478635,-1147.4323)"
       clip-path="url(#clipPath3776)">
      <path
         inkscape:transform-center-y="-0.28647451"
         transform="translate(2.5938305,1040.3821)"
         d="M -6.9999999,2 -7.0357723,5.2838281 -4.8786796,2.8786797 -7.2259916,5.175402 -4,5.0000001 -7.2838281,4.9642277 -4.8786797,7.1213204 -7.175402,4.7740084 -7.0000001,8 -6.9642277,4.7161719 -9.1213204,7.1213203 -6.7740084,4.824598 -10,4.9999999 l 3.2838281,0.035772 -2.4051484,-2.1570927 2.2967223,2.347312 z"
         inkscape:randomized="0"
         inkscape:rounded="4.1980308e-16"
         inkscape:flatsided="false"
         sodipodi:arg2="1.6961702"
         sodipodi:arg1="-1.5707963"
         sodipodi:r2="0.28607354"
         sodipodi:r1="3"
         sodipodi:cy="5"
         sodipodi:cx="-7"
         sodipodi:sides="8"
         id="path2995"
         style="fill:#000000;fill-opacity:1;stroke:#000000;stroke-width:1.10599995;stroke-linecap:butt;stroke-linejoin:miter;stroke-miterlimit:4;stroke-opacity:1;stroke-dasharray:none"
         sodipodi:type="star" />
      <path
         transform="matrix(1.9710551,0,0,1.9710551,7.39712,1036.1451)"
         d="m -4.7729706,4.6862917 c 0,0.6712136 -0.5441261,1.2153398 -1.2153397,1.2153398 -0.6712137,0 -1.2153398,-0.5441262 -1.2153398,-1.2153398 0,-0.6712136 0.5441261,-1.2153398 1.2153398,-1.2153398 0.6712136,0 1.2153397,0.5441262 1.2153397,1.2153398 z"
         sodipodi:ry="1.2153398"
         sodipodi:rx="1.2153398"
         sodipodi:cy="4.6862917"
         sodipodi:cx="-5.9883103"
         id="path3765"
         style="fill:#000000;fill-opacity:1;stroke:none"
         sodipodi:type="arc" />
      <path
         sodipodi:type="arc"
         style="fill:#ffffff;fill-opacity:1;stroke:none"
         id="path3767"
         sodipodi:cx="-5.9883103"
         sodipodi:cy="4.6862917"
         sodipodi:rx="1.2153398"
         sodipodi:ry="1.2153398"
         d="m -4.7729706,4.6862917 c 0,0.6712136 -0.5441261,1.2153398 -1.2153397,1.2153398 -0.6712137,0 -1.2153398,-0.5441262 -1.2153398,-1.2153398 0,-0.6712136 0.5441261,-1.2153398 1.2153398,-1.2153398 0.6712136,0 1.2153397,0.5441262 1.2153397,1.2153398 z"
         transform="matrix(1.1310044,0,0,1.1310044,2.3666358,1040.0819)" />
    </g>
  </g>
</svg>
