<?xml version="1.0" encoding="UTF-8" standalone="no"?>
<!-- Created with Inkscape (http://www.inkscape.org/) -->

<svg
   xmlns:dc="http://purl.org/dc/elements/1.1/"
   xmlns:cc="http://creativecommons.org/ns#"
   xmlns:rdf="http://www.w3.org/1999/02/22-rdf-syntax-ns#"
   xmlns:svg="http://www.w3.org/2000/svg"
   xmlns="http://www.w3.org/2000/svg"
   xmlns:xlink="http://www.w3.org/1999/xlink"
   xmlns:sodipodi="http://sodipodi.sourceforge.net/DTD/sodipodi-0.dtd"
   xmlns:inkscape="http://www.inkscape.org/namespaces/inkscape"
   width="48px"
   height="48px"
   id="svg1306"
   sodipodi:version="0.32"
   inkscape:version="0.48.3.1 r9886"
   sodipodi:docname="terminator-preferences.svg"
   inkscape:export-filename="/home/andreas/projekt/bild/tango/terminal4.png"
   inkscape:export-xdpi="240.00000"
   inkscape:export-ydpi="240.00000"
   inkscape:output_extension="org.inkscape.output.svg.inkscape"
   version="1.1">
  <defs
     id="defs1308">
    <radialGradient
       inkscape:collect="always"
       xlink:href="#linearGradient5060"
       id="radialGradient5031"
       gradientUnits="userSpaceOnUse"
       gradientTransform="matrix(-2.774389,0,0,1.969706,112.7623,-872.8854)"
       cx="605.71429"
       cy="486.64789"
       fx="605.71429"
       fy="486.64789"
       r="117.14286" />
    <linearGradient
       inkscape:collect="always"
       id="linearGradient5060">
      <stop
         style="stop-color:black;stop-opacity:1;"
         offset="0"
         id="stop5062" />
      <stop
         style="stop-color:black;stop-opacity:0;"
         offset="1"
         id="stop5064" />
    </linearGradient>
    <radialGradient
       inkscape:collect="always"
       xlink:href="#linearGradient5060"
       id="radialGradient5029"
       gradientUnits="userSpaceOnUse"
       gradientTransform="matrix(2.774389,0,0,1.969706,-1891.633,-872.8854)"
       cx="605.71429"
       cy="486.64789"
       fx="605.71429"
       fy="486.64789"
       r="117.14286" />
    <linearGradient
       id="linearGradient5048">
      <stop
         style="stop-color:black;stop-opacity:0;"
         offset="0"
         id="stop5050" />
      <stop
         id="stop5056"
         offset="0.5"
         style="stop-color:black;stop-opacity:1;" />
      <stop
         style="stop-color:black;stop-opacity:0;"
         offset="1"
         id="stop5052" />
    </linearGradient>
    <linearGradient
       inkscape:collect="always"
       xlink:href="#linearGradient5048"
       id="linearGradient5027"
       gradientUnits="userSpaceOnUse"
       gradientTransform="matrix(2.774389,0,0,1.969706,-1892.179,-872.8854)"
       x1="302.85715"
       y1="366.64789"
       x2="302.85715"
       y2="609.50507" />
    <linearGradient
       inkscape:collect="always"
       id="linearGradient6447">
      <stop
         style="stop-color:#777973;stop-opacity:1;"
         offset="0"
         id="stop6449" />
      <stop
         style="stop-color:#777973;stop-opacity:0;"
         offset="1"
         id="stop6451" />
    </linearGradient>
    <linearGradient
       id="linearGradient4254">
      <stop
         style="stop-color:#616161;stop-opacity:1.0000000;"
         offset="0.0000000"
         id="stop4256" />
      <stop
         style="stop-color:#a0a0a0;stop-opacity:1.0000000;"
         offset="1.0000000"
         id="stop4258" />
    </linearGradient>
    <linearGradient
       id="linearGradient5176">
      <stop
         id="stop5178"
         offset="0.0000000"
         style="stop-color:#a2a59c;stop-opacity:1.0000000;" />
      <stop
         id="stop5180"
         offset="1.0000000"
         style="stop-color:#535750;stop-opacity:1.0000000;" />
    </linearGradient>
    <linearGradient
       id="linearGradient2667">
      <stop
         id="stop2669"
         offset="0.0000000"
         style="stop-color:#ffffff;stop-opacity:1.0000000;" />
      <stop
         id="stop2671"
         offset="1.0000000"
         style="stop-color:#fcfcff;stop-opacity:0.0000000;" />
    </linearGradient>
    <linearGradient
       gradientUnits="userSpaceOnUse"
       y2="26.729263"
       x2="17.199417"
       y1="1.6537577"
       x1="11.492236"
       gradientTransform="matrix(1.236157,0.000000,0.000000,0.896051,-1.081820,2.830699)"
       id="linearGradient2673"
       xlink:href="#linearGradient2667"
       inkscape:collect="always" />
    <linearGradient
       inkscape:collect="always"
       id="linearGradient2238">
      <stop
         style="stop-color:#ffffff;stop-opacity:1;"
         offset="0"
         id="stop2240" />
      <stop
         style="stop-color:#ffffff;stop-opacity:0;"
         offset="1"
         id="stop2242" />
    </linearGradient>
    <linearGradient
       id="linearGradient2214">
      <stop
         style="stop-color:#a9aaa7;stop-opacity:1.0000000;"
         offset="0.0000000"
         id="stop2216" />
      <stop
         style="stop-color:#676964;stop-opacity:1.0000000;"
         offset="1.0000000"
         id="stop2218" />
    </linearGradient>
    <linearGradient
       id="linearGradient2206">
      <stop
         style="stop-color:#777973;stop-opacity:1.0000000;"
         offset="0.0000000"
         id="stop2208" />
      <stop
         style="stop-color:#cbccca;stop-opacity:1.0000000;"
         offset="1.0000000"
         id="stop2210" />
    </linearGradient>
    <linearGradient
       id="linearGradient2198">
      <stop
         style="stop-color:#ff0000;stop-opacity:1;"
         offset="0"
         id="stop2200" />
      <stop
         style="stop-color:#5a0000;stop-opacity:1;"
         offset="1"
         id="stop2202" />
    </linearGradient>
    <linearGradient
       inkscape:collect="always"
       xlink:href="#linearGradient2198"
       id="linearGradient2204"
       x1="23.118565"
       y1="9.5830288"
       x2="22.440805"
       y2="34.225887"
       gradientUnits="userSpaceOnUse"
       gradientTransform="matrix(0.9500924,0,0,0.9650936,1.1833929,0.2767092)" />
    <linearGradient
       inkscape:collect="always"
       xlink:href="#linearGradient2206"
       id="linearGradient2212"
       x1="29.870447"
       y1="32.285740"
       x2="24.841814"
       y2="14.157946"
       gradientUnits="userSpaceOnUse"
       gradientTransform="matrix(0.957412,0.000000,0.000000,0.952331,1.022766,0.133307)" />
    <linearGradient
       inkscape:collect="always"
       xlink:href="#linearGradient5176"
       id="linearGradient2220"
       x1="8.6529236"
       y1="9.5865316"
       x2="21.305075"
       y2="32.497993"
       gradientUnits="userSpaceOnUse"
       gradientTransform="matrix(0.957412,0.000000,0.000000,0.952331,1.022766,0.133307)" />
    <linearGradient
       inkscape:collect="always"
       xlink:href="#linearGradient2238"
       id="linearGradient2244"
       x1="20.338758"
       y1="19.636894"
       x2="48.845253"
       y2="49.730762"
       gradientUnits="userSpaceOnUse"
       gradientTransform="matrix(0.953506,0.000000,0.000000,0.947873,1.141528,1.205591)" />
    <linearGradient
       inkscape:collect="always"
       xlink:href="#linearGradient4254"
       id="linearGradient4260"
       x1="11.048059"
       y1="9.1463490"
       x2="26.178129"
       y2="30.343304"
       gradientUnits="userSpaceOnUse"
       gradientTransform="matrix(0.9975908,0,0,0.9893614,4.354704e-2,9.1764254e-2)" />
    <linearGradient
       inkscape:collect="always"
       xlink:href="#linearGradient2214"
       id="linearGradient5719"
       x1="40.253334"
       y1="42.318577"
       x2="36.451904"
       y2="37.999615"
       gradientUnits="userSpaceOnUse"
       gradientTransform="matrix(1.000000,0.000000,0.000000,0.744756,0.000000,9.569132)" />
    <radialGradient
       inkscape:collect="always"
       xlink:href="#linearGradient6447"
       id="radialGradient6453"
       cx="37.495606"
       cy="39.510023"
       fx="37.495606"
       fy="39.510023"
       r="2.5100370"
       gradientTransform="matrix(1.000000,0.000000,0.000000,0.737790,0.000000,9.844321)"
       gradientUnits="userSpaceOnUse" />
    <linearGradient
       id="linearGradient2958"
       y2="81.926003"
       gradientUnits="userSpaceOnUse"
       x2="335.29999"
       gradientTransform="matrix(1.363,0,0,1.3617,-402.9,-65.884)"
       y1="64.294998"
       x1="304.76001">
      <stop
         id="stop4436"
         style="stop-color:#d3d7cf"
         offset="0" />
      <stop
         id="stop4438"
         style="stop-color:#babdb6"
         offset=".18304" />
      <stop
         id="stop4440"
         style="stop-color:#fff"
         offset=".31893" />
      <stop
         id="stop4442"
         style="stop-color:#babdb6"
         offset=".87644" />
      <stop
         id="stop4444"
         style="stop-color:#eeeeec"
         offset="1" />
    </linearGradient>
    <linearGradient
       id="linearGradient2960"
       y2="99.274002"
       gradientUnits="userSpaceOnUse"
       x2="330.06"
       gradientTransform="matrix(1.363,0,0,1.3617,-402.9,-65.884)"
       y1="70.281998"
       x1="324.5">
      <stop
         id="stop7446"
         style="stop-color:#888a85"
         offset="0" />
      <stop
         id="stop7448"
         style="stop-color:#555753"
         offset="1" />
    </linearGradient>
    <linearGradient
       id="linearGradient4734"
       y2="60.768002"
       gradientUnits="userSpaceOnUse"
       x2="308.64999"
       gradientTransform="matrix(1.363,0,0,1.3617,-402.9,-65.884)"
       y1="58.443001"
       x1="302.29001">
      <stop
         id="stop7383"
         style="stop-color:#babdb6"
         offset="0" />
      <stop
         id="stop7385"
         style="stop-color:#fff"
         offset="1" />
    </linearGradient>
    <linearGradient
       id="linearGradient4758"
       y2="88.005997"
       gradientUnits="userSpaceOnUse"
       x2="317.16"
       gradientTransform="matrix(1.363,0,0,1.3617,-402.9,-65.884)"
       y1="75.574997"
       x1="326.60001">
      <stop
         id="stop7423"
         style="stop-color:#fff"
         offset="0" />
      <stop
         id="stop7425"
         style="stop-color:#fff;stop-opacity:0"
         offset="1" />
    </linearGradient>
    <radialGradient
       id="radialGradient2915"
       xlink:href="#linearGradient6221"
       gradientUnits="userSpaceOnUse"
       cy="34.498001"
       cx="21.959999"
       gradientTransform="matrix(0.5406,0,0,0.16183,29.247,40.449)"
       r="12.728" />
    <linearGradient
       id="linearGradient6221">
      <stop
         id="stop6223"
         offset="0" />
      <stop
         id="stop6225"
         style="stop-opacity:0"
         offset="1" />
    </linearGradient>
    <radialGradient
       id="radialGradient2912"
       xlink:href="#linearGradient6221"
       gradientUnits="userSpaceOnUse"
       cy="34.498001"
       cx="21.959999"
       gradientTransform="matrix(0.23695,0,0,0.090597,36.781,43.759)"
       r="12.728" />
    <linearGradient
       id="linearGradient4103">
      <stop
         id="stop4105"
         offset="0" />
      <stop
         id="stop4107"
         style="stop-opacity:0"
         offset="1" />
    </linearGradient>
    <linearGradient
       id="linearGradient4668"
       y2="35.078999"
       gradientUnits="userSpaceOnUse"
       x2="90.221001"
       gradientTransform="matrix(0.82274,-0.82219,0.71961,0.71912,-71.184,83.621)"
       y1="35.152"
       x1="97.442001">
      <stop
         id="stop4958"
         style="stop-color:#f8b17e"
         offset="0" />
      <stop
         id="stop4960"
         style="stop-color:#e35d4f"
         offset=".26238" />
      <stop
         id="stop4962"
         style="stop-color:#c6262e"
         offset=".66347" />
      <stop
         id="stop4964"
         style="stop-color:#690b54"
         offset="1" />
    </linearGradient>
    <linearGradient
       id="linearGradient4972"
       y2="27.273001"
       gradientUnits="userSpaceOnUse"
       x2="36.000999"
       gradientTransform="translate(0.91859,2.0745)"
       y1="34.022999"
       x1="29.278">
      <stop
         id="stop2492"
         style="stop-color:#791235"
         offset="0" />
      <stop
         id="stop2494"
         style="stop-color:#dd3b27"
         offset="1" />
    </linearGradient>
    <linearGradient
       id="linearGradient4665"
       y2="44.139999"
       xlink:href="#linearGradient6221"
       gradientUnits="userSpaceOnUse"
       x2="-9.7747002"
       gradientTransform="matrix(0.50045,-0.49965,0.84917,0.84785,0.80738,-6.9351)"
       y1="44.229"
       x1="-6.3077998" />
    <linearGradient
       id="linearGradient4118">
      <stop
         id="stop4120"
         offset="0" />
      <stop
         id="stop4122"
         style="stop-opacity:0"
         offset="1" />
    </linearGradient>
    <linearGradient
       y2="44.139999"
       x2="-9.7747002"
       y1="44.229"
       x1="-6.3077998"
       gradientTransform="matrix(0.50045,-0.49965,0.84917,0.84785,0.80738,-6.9351)"
       gradientUnits="userSpaceOnUse"
       id="linearGradient4133"
       xlink:href="#linearGradient6221"
       inkscape:collect="always" />
  </defs>
  <sodipodi:namedview
     id="base"
     pagecolor="#ffffff"
     bordercolor="#666666"
     borderopacity="0.19607843"
     inkscape:pageopacity="0.0"
     inkscape:pageshadow="2"
     inkscape:zoom="1"
     inkscape:cx="14.171913"
     inkscape:cy="49.498146"
     inkscape:current-layer="layer1"
     showgrid="false"
     inkscape:grid-bbox="true"
     inkscape:document-units="px"
     inkscape:window-width="600"
     inkscape:window-height="592"
     inkscape:window-x="538"
     inkscape:window-y="169"
     showguides="true"
     inkscape:guide-bbox="true"
     inkscape:showpageshadow="false"
     inkscape:window-maximized="0">
    <inkscape:grid
       type="xygrid"
       id="grid4230" />
  </sodipodi:namedview>
  <metadata
     id="metadata1311">
    <rdf:RDF>
      <cc:Work
         rdf:about="">
        <dc:format>image/svg+xml</dc:format>
        <dc:type
           rdf:resource="http://purl.org/dc/dcmitype/StillImage" />
        <dc:title></dc:title>
        <dc:date />
        <dc:creator>
          <cc:Agent>
            <dc:title />
          </cc:Agent>
        </dc:creator>
        <dc:subject>
          <rdf:Bag />
        </dc:subject>
        <cc:license
           rdf:resource="" />
        <dc:contributor>
          <cc:Agent>
            <dc:title />
          </cc:Agent>
        </dc:contributor>
      </cc:Work>
      <cc:License
         rdf:about="http://creativecommons.org/licenses/by-sa/2.0/">
        <cc:permits
           rdf:resource="http://web.resource.org/cc/Reproduction" />
        <cc:permits
           rdf:resource="http://web.resource.org/cc/Distribution" />
        <cc:requires
           rdf:resource="http://web.resource.org/cc/Notice" />
        <cc:requires
           rdf:resource="http://web.resource.org/cc/Attribution" />
        <cc:permits
           rdf:resource="http://web.resource.org/cc/DerivativeWorks" />
        <cc:requires
           rdf:resource="http://web.resource.org/cc/ShareAlike" />
      </cc:License>
    </rdf:RDF>
  </metadata>
  <g
     id="layer1"
     inkscape:label="Layer 1"
     inkscape:groupmode="layer">
    <g
       id="g5022"
       transform="matrix(2.454499e-2,0,0,2.086758e-2,46.14369,39.34109)">
      <rect
         y="-150.69685"
         x="-1559.2523"
         height="478.35718"
         width="1339.6335"
         id="rect4173"
         style="opacity:0.40206185;color:black;fill:url(#linearGradient5027);fill-opacity:1;fill-rule:nonzero;stroke:none;stroke-width:1;stroke-linecap:round;stroke-linejoin:miter;marker:none;marker-start:none;marker-mid:none;marker-end:none;stroke-miterlimit:4;stroke-dasharray:none;stroke-dashoffset:0;stroke-opacity:1;visibility:visible;display:inline;overflow:visible" />
      <path
         sodipodi:nodetypes="cccc"
         id="path5058"
         d="M -219.61876,-150.68038 C -219.61876,-150.68038 -219.61876,327.65041 -219.61876,327.65041 C -76.744594,328.55086 125.78146,220.48075 125.78138,88.454235 C 125.78138,-43.572302 -33.655436,-150.68036 -219.61876,-150.68038 z "
         style="opacity:0.40206185;color:black;fill:url(#radialGradient5029);fill-opacity:1;fill-rule:nonzero;stroke:none;stroke-width:1;stroke-linecap:round;stroke-linejoin:miter;marker:none;marker-start:none;marker-mid:none;marker-end:none;stroke-miterlimit:4;stroke-dasharray:none;stroke-dashoffset:0;stroke-opacity:1;visibility:visible;display:inline;overflow:visible" />
      <path
         style="opacity:0.40206185;color:black;fill:url(#radialGradient5031);fill-opacity:1;fill-rule:nonzero;stroke:none;stroke-width:1;stroke-linecap:round;stroke-linejoin:miter;marker:none;marker-start:none;marker-mid:none;marker-end:none;stroke-miterlimit:4;stroke-dasharray:none;stroke-dashoffset:0;stroke-opacity:1;visibility:visible;display:inline;overflow:visible"
         d="M -1559.2523,-150.68038 C -1559.2523,-150.68038 -1559.2523,327.65041 -1559.2523,327.65041 C -1702.1265,328.55086 -1904.6525,220.48075 -1904.6525,88.454235 C -1904.6525,-43.572302 -1745.2157,-150.68036 -1559.2523,-150.68038 z "
         id="path5018"
         sodipodi:nodetypes="cccc" />
    </g>
    <rect
       style="opacity:1.0000000;fill:url(#linearGradient2212);fill-opacity:1.0000000;fill-rule:evenodd;stroke:url(#linearGradient2220);stroke-width:0.99999946;stroke-linecap:round;stroke-linejoin:round;stroke-miterlimit:4.0000000;stroke-dasharray:none;stroke-dashoffset:0.0000000;stroke-opacity:1.0000000"
       id="rect1316"
       width="44.996037"
       height="38.998734"
       x="1.5026338"
       y="3.5015533"
       rx="4.8517075"
       ry="4.8517079" />
    <rect
       style="opacity:1;fill:url(#linearGradient2204);fill-opacity:1;fill-rule:evenodd;stroke:url(#linearGradient4260);stroke-width:0.99467027;stroke-linecap:round;stroke-linejoin:round;stroke-miterlimit:4;stroke-dasharray:none;stroke-dashoffset:0;stroke-opacity:1"
       id="rect1314"
       width="37.088291"
       height="29.005329"
       x="5.4357266"
       y="7.4998446"
       rx="1.6452278"
       ry="1.6442512" />
    <g
       id="g2286"
       style="opacity:0.25568182">
      <path
         id="path1345"
         d="M 8.0152033,11.500361 L 39.994145,11.500361"
         style="fill:none;fill-opacity:0.75;fill-rule:evenodd;stroke:#181f10;stroke-width:1.00072134;stroke-linecap:butt;stroke-linejoin:miter;stroke-miterlimit:4;stroke-dasharray:none;stroke-opacity:1" />
      <path
         style="fill:none;fill-opacity:0.75;fill-rule:evenodd;stroke:#181f10;stroke-width:1.00072134;stroke-linecap:butt;stroke-linejoin:miter;stroke-miterlimit:4;stroke-dasharray:none;stroke-opacity:1"
         d="M 8.0152033,13.500361 L 39.994145,13.500361"
         id="path2264" />
      <path
         id="path2266"
         d="M 8.0152033,15.500361 L 39.994145,15.500361"
         style="fill:none;fill-opacity:0.75;fill-rule:evenodd;stroke:#181f10;stroke-width:1.00072134;stroke-linecap:butt;stroke-linejoin:miter;stroke-miterlimit:4;stroke-dasharray:none;stroke-opacity:1" />
      <path
         style="fill:none;fill-opacity:0.75;fill-rule:evenodd;stroke:#181f10;stroke-width:1.00072134;stroke-linecap:butt;stroke-linejoin:miter;stroke-miterlimit:4;stroke-dasharray:none;stroke-opacity:1"
         d="M 8.0152033,17.500361 L 39.994145,17.500361"
         id="path2268" />
      <path
         id="path2270"
         d="M 8.0152033,19.500361 L 39.994145,19.500361"
         style="fill:none;fill-opacity:0.75;fill-rule:evenodd;stroke:#181f10;stroke-width:1.00072134;stroke-linecap:butt;stroke-linejoin:miter;stroke-miterlimit:4;stroke-dasharray:none;stroke-opacity:1" />
      <path
         style="fill:none;fill-opacity:0.75;fill-rule:evenodd;stroke:#181f10;stroke-width:1.00072134;stroke-linecap:butt;stroke-linejoin:miter;stroke-miterlimit:4;stroke-dasharray:none;stroke-opacity:1"
         d="M 8.0152033,21.500361 L 39.994145,21.500361"
         id="path2272" />
      <path
         id="path2274"
         d="M 8.0152033,23.500361 L 39.994145,23.500361"
         style="fill:none;fill-opacity:0.75;fill-rule:evenodd;stroke:#181f10;stroke-width:1.00072134;stroke-linecap:butt;stroke-linejoin:miter;stroke-miterlimit:4;stroke-dasharray:none;stroke-opacity:1" />
      <path
         style="fill:none;fill-opacity:0.75;fill-rule:evenodd;stroke:#181f10;stroke-width:1.00072134;stroke-linecap:butt;stroke-linejoin:miter;stroke-miterlimit:4;stroke-dasharray:none;stroke-opacity:1"
         d="M 8.0152033,25.500361 L 39.994145,25.500361"
         id="path2276" />
      <path
         id="path2278"
         d="M 8.0152033,27.500361 L 39.994145,27.500361"
         style="fill:none;fill-opacity:0.75;fill-rule:evenodd;stroke:#181f10;stroke-width:1.00072134;stroke-linecap:butt;stroke-linejoin:miter;stroke-miterlimit:4;stroke-dasharray:none;stroke-opacity:1" />
      <path
         style="fill:none;fill-opacity:0.75;fill-rule:evenodd;stroke:#181f10;stroke-width:1.00072134;stroke-linecap:butt;stroke-linejoin:miter;stroke-miterlimit:4;stroke-dasharray:none;stroke-opacity:1"
         d="M 8.0152033,29.500361 L 39.994145,29.500361"
         id="path2280" />
      <path
         id="path2282"
         d="M 8.0152033,31.500361 L 39.994145,31.500361"
         style="fill:none;fill-opacity:0.75;fill-rule:evenodd;stroke:#181f10;stroke-width:1.00072134;stroke-linecap:butt;stroke-linejoin:miter;stroke-miterlimit:4;stroke-dasharray:none;stroke-opacity:1" />
      <path
         style="fill:none;fill-opacity:0.75;fill-rule:evenodd;stroke:#181f10;stroke-width:1.00072134;stroke-linecap:butt;stroke-linejoin:miter;stroke-miterlimit:4;stroke-dasharray:none;stroke-opacity:1"
         d="M 8.0152033,33.500361 L 39.994145,33.500361"
         id="path2284" />
    </g>
    <rect
       style="opacity:0.76373626;fill:none;fill-opacity:1;fill-rule:evenodd;stroke:url(#linearGradient2244);stroke-width:0.99999946;stroke-linecap:round;stroke-linejoin:round;stroke-miterlimit:4;stroke-dasharray:none;stroke-dashoffset:0;stroke-opacity:1"
       id="rect2232"
       width="42.945141"
       height="37.000587"
       x="2.5542557"
       y="4.5007114"
       rx="3.7910469"
       ry="3.7910469" />
    <path
       style="font-size:18.58501053px;font-style:normal;font-variant:normal;font-weight:bold;font-stretch:normal;text-align:start;line-height:125%;writing-mode:lr-tb;text-anchor:start;fill:#ffffff;fill-opacity:1;stroke:#ff0000;stroke-width:0.36798642pt;stroke-linecap:butt;stroke-linejoin:miter;stroke-opacity:0.2786885;font-family:Bitstream Vera Sans Mono"
       d="M 8.5171086,12.191731 L 8.5171086,11.067756 L 11.823403,12.562073 L 11.823403,13.245026 L 8.5171086,14.749146 L 8.5171086,13.628511 L 11.079912,12.946316 L 8.5171086,12.191731 z M 15.469341,15.881295 L 15.469341,16.607773 L 11.457036,16.607773 L 11.457036,15.881295 L 15.469341,15.881295"
       id="text1340"
       sodipodi:nodetypes="ccccccccccccc" />
    <path
       style="opacity:0.72413791;fill:#000000;fill-opacity:1;stroke:none;stroke-width:2;stroke-linecap:round;stroke-linejoin:miter;stroke-miterlimit:4;stroke-dasharray:none;stroke-opacity:0.2786885"
       d="M 23 9.9375 L 23 21 L 7.96875 21 L 7.96875 23 L 23 23 L 23 34.09375 L 25 34.09375 L 25 23 L 40.03125 23 L 40.03125 21 L 25 21 L 25 9.9375 L 23 9.9375 z "
       id="rect3228" />
    <path
       sodipodi:nodetypes="ccccccc"
       style="opacity:0.53142856;fill:url(#linearGradient2673);fill-opacity:1;fill-rule:evenodd;stroke:none;stroke-width:0.25pt;stroke-linecap:butt;stroke-linejoin:miter;stroke-opacity:1"
       d="M 7.625388,8 C 7.102102,8 6.05153,8.190188 6.05153,9.0259761 L 6.16958,25.542519 C 23.841567,24.579133 20.294433,17.286426 42,13.633318 L 41.937264,9.2913791 C 41.859002,8.1662868 41.397947,8.0594548 40.327115,8.066071 L 7.625388,8 z "
       id="path2443" />
    <rect
       style="opacity:0.71428572999999995;fill:none;fill-opacity:1;fill-rule:evenodd;stroke:#000000;stroke-width:2;stroke-linecap:round;stroke-linejoin:round;stroke-miterlimit:4;stroke-dasharray:none;stroke-dashoffset:0;stroke-opacity:1"
       id="rect1340"
       width="34.026031"
       height="26.057468"
       x="6.9894562"
       y="8.9805145"
       rx="0.11773217"
       ry="0.11773217" />
    <rect
       style="opacity:1;fill:url(#radialGradient6453);fill-opacity:1;fill-rule:evenodd;stroke:url(#linearGradient5719);stroke-width:1.00000119;stroke-linecap:round;stroke-linejoin:miter;stroke-miterlimit:4;stroke-dasharray:none;stroke-dashoffset:0;stroke-opacity:1"
       id="rect5025"
       width="4.0200734"
       height="2.9590063"
       x="35.485569"
       y="37.514935"
       rx="0.35819405"
       ry="0.56022596" />
    <rect
       style="opacity:1;fill:#ff0000;fill-opacity:1;fill-rule:evenodd;stroke:none;stroke-width:2;stroke-linecap:round;stroke-linejoin:miter;stroke-miterlimit:4;stroke-dasharray:none;stroke-dashoffset:0;stroke-opacity:1"
       id="rect6458"
       width="2"
       height="2"
       x="32"
       y="38"
       rx="0.56022543"
       ry="0.56022543" />
    <path
       sodipodi:type="arc"
       style="opacity:1;color:#000000;fill:#ffffff;fill-opacity:1;fill-rule:nonzero;stroke:none;stroke-width:1;stroke-linecap:butt;stroke-linejoin:round;marker:none;marker-start:none;marker-mid:none;marker-end:none;stroke-miterlimit:4;stroke-dasharray:none;stroke-dashoffset:0;stroke-opacity:1;visibility:visible;display:inline;overflow:visible"
       id="path2300"
       sodipodi:cx="28.3125"
       sodipodi:cy="38.75"
       sodipodi:rx="0.5625"
       sodipodi:ry="0.5625"
       d="M 28.875 38.75 A 0.5625 0.5625 0 1 1  27.75,38.75 A 0.5625 0.5625 0 1 1  28.875 38.75 z"
       transform="translate(4.375000,-6.250000e-2)" />
    <path
       style="font-size:18.58501053px;font-style:normal;font-variant:normal;font-weight:bold;font-stretch:normal;text-align:start;line-height:125%;writing-mode:lr-tb;text-anchor:start;fill:#ffffff;fill-opacity:1;stroke:#ff0000;stroke-width:0.36798642pt;stroke-linecap:butt;stroke-linejoin:miter;stroke-opacity:0.2786885;font-family:Bitstream Vera Sans Mono"
       d="M 25.694705,12.191731 L 25.694705,11.067756 L 29.001001,12.562073 L 29.001001,13.245026 L 25.694705,14.749146 L 25.694705,13.628511 L 28.257509,12.946316 L 25.694705,12.191731 z M 32.646939,15.881295 L 32.646939,16.607773 L 28.634633,16.607773 L 28.634633,15.881295 L 32.646939,15.881295"
       id="path3221"
       sodipodi:nodetypes="ccccccccccccc" />
    <path
       style="font-size:18.58501053px;font-style:normal;font-variant:normal;font-weight:bold;font-stretch:normal;text-align:start;line-height:125%;writing-mode:lr-tb;text-anchor:start;fill:#ffffff;fill-opacity:1;stroke:#ff0000;stroke-width:0.36798642pt;stroke-linecap:butt;stroke-linejoin:miter;stroke-opacity:0.2786885;font-family:Bitstream Vera Sans Mono"
       d="M 8.5171086,26.538666 L 8.5171086,25.414691 L 11.823408,26.909008 L 11.823408,27.591961 L 8.5171086,29.096081 L 8.5171086,27.975446 L 11.079916,27.293251 L 8.5171086,26.538666 z M 15.469346,30.22823 L 15.469346,30.954708 L 11.457041,30.954708 L 11.457041,30.22823 L 15.469346,30.22823"
       id="path3223"
       sodipodi:nodetypes="ccccccccccccc" />
    <path
       style="font-size:18.58501053px;font-style:normal;font-variant:normal;font-weight:bold;font-stretch:normal;text-align:start;line-height:125%;writing-mode:lr-tb;text-anchor:start;fill:#ffffff;fill-opacity:1;stroke:#ff0000;stroke-width:0.36798642pt;stroke-linecap:butt;stroke-linejoin:miter;stroke-opacity:0.2786885;font-family:Bitstream Vera Sans Mono"
       d="M 25.694704,26.606311 L 25.694704,25.482336 L 29.001002,26.976653 L 29.001002,27.659606 L 25.694704,29.163726 L 25.694704,28.043091 L 28.257511,27.360896 L 25.694704,26.606311 z M 32.64694,30.295875 L 32.64694,31.022353 L 28.634636,31.022353 L 28.634636,30.295875 L 32.64694,30.295875"
       id="path3226"
       sodipodi:nodetypes="ccccccccccccc" />
    <g
       transform="translate(0.00848543,-0.02729126)"
       id="g3062">
      <path
         inkscape:connector-curvature="0"
         d="M 13.075,4.512 C 12.911,4.5038 12.747,4.5702 12.637,4.6995 12.491,4.872 12.492,5.1279 12.606,5.3245 l 3.063,5.4685 c 0.275,0.492 0.13,1.135 -0.313,1.782 -0.447,0.652 -1.204,1.293 -2.156,1.812 -0.953,0.519 -1.891,0.817 -2.688,0.844 C 9.7207,15.258 9.1005,15.036 8.8248,14.543 L 5.7311,9.012 C 5.6452,8.859 5.4996,8.7824 5.3248,8.762 5.1501,8.7418 4.9727,8.7888 4.8561,8.9183 4.7931,8.9856 4.7526,9.0788 4.7311,9.1683 4.138,11.722 4.4187,14.657 5.5436,16.668 c 1.5363,2.747 4.7414,4.055 7.8754,3.5 1.28,0.431 3.456,1.178 5.469,3.176 l 4.15,-4.419 C 21.223,17.124 20.375,15.481 19.887,14.262 20.311,12.577 20.122,10.791 19.231,9.1995 18.107,7.1894 15.763,5.41 13.262,4.5433 13.209,4.5237 13.129,4.5148 13.075,4.512 z"
         style="fill:url(#linearGradient2958);fill-rule:evenodd;stroke:url(#linearGradient2960);stroke-linecap:round;stroke-linejoin:round;stroke-dashoffset:0.3612;enable-background:new"
         id="path6912" />
      <path
         inkscape:connector-curvature="0"
         d="m 13.078,5.0093 c 0.026,0.0095 0.01,0.0425 0,0.0426 l 3.067,5.4891 c 0.414,0.74 0.115,1.613 -0.383,2.341 -0.504,0.734 -1.284,1.446 -2.301,2 -1.018,0.554 -2.086,0.82 -2.981,0.851 -0.8934,0.03 -1.7319,-0.225 -2.1299,-0.936 L 5.2833,9.2646 c -0.0176,-0.0027 -0.0455,0.0027 -0.0427,0 0.0281,-0.0299 0.0054,0.0218 0,0.0427 -0.5655,2.4347 -0.2722,5.2487 0.7667,7.1067 1.4212,2.54 4.3877,3.753 7.3267,3.234 2.924,-0.523 5.424,-3.068 6.048,-5.49 C 19.776,12.59 19.608,10.905 18.786,9.4349 17.75,7.5828 15.47,5.8386 13.078,5.0094 v -1e-4 z"
         style="fill:url(#linearGradient4734);fill-rule:evenodd;enable-background:new"
         id="path7379" />
      <path
         inkscape:connector-curvature="0"
         d="m 14.606,6.5433 2.063,3.6877 c 0.581,1.039 0.159,2.174 -0.407,3 -0.571,0.834 -1.407,1.561 -2.5,2.156 -1.097,0.598 -2.235,0.935 -3.25,0.969 -1.0157,0.034 -2.1412,-0.274 -2.6872,-1.25 l -2.125,-3.844 c -0.0907,1.795 0.1171,3.601 0.8125,4.844 1.2819,2.291 3.9847,3.415 6.6877,2.937 0.198,-0.039 0.403,-0.004 0.594,0.063 1.464,0.492 3.293,1.497 5.406,3.594 l 1,1 3.094,-3.094 -0.969,-0.969 C 20.42,17.747 19.376,16.078 18.825,14.7 18.742,14.484 18.738,14.267 18.794,14.043 19.152,12.617 19.002,11.054 18.262,9.7308 17.586,8.5218 16.161,7.418 14.606,6.5433 z"
         style="fill:none;stroke:url(#linearGradient4758);stroke-width:0.69999999;stroke-linecap:round;stroke-dashoffset:0.3612;enable-background:new"
         id="path4756" />
      <path
         inkscape:connector-curvature="0"
         d="m 19.044,18.356 c -0.137,0.012 -0.258,0.039 -0.344,0.125 l -0.625,0.656 c -0.344,0.344 -0.093,1.189 0.594,1.875 l 2.125,2.094 1.875,-1.906 -2.094,-2.094 c -0.515,-0.515 -1.121,-0.785 -1.531,-0.75 z"
         style="opacity:0.07999998;fill-rule:evenodd;enable-background:new"
         id="rect7166" />
      <path
         inkscape:connector-curvature="0"
         d="m 48,46 c 0,1.118 -3.134,2.024 -7,2.024 -3.866,0 -7,-0.906 -7,-2.024 0,-1.118 3.134,-2.024 7,-2.024 3.866,0 7,0.906 7,2.024 z"
         style="opacity:0.51000001;fill:url(#radialGradient2915)"
         id="path6765" />
      <path
         inkscape:connector-curvature="0"
         d="M 45,46.867 C 45,47.493 43.626,48 41.932,48 c -1.695,0 -3.068,-0.507 -3.068,-1.133 0,-0.626 1.373,-1.133 3.068,-1.133 1.694,0 3.068,0.507 3.068,1.133 z"
         style="opacity:0.3;fill:url(#radialGradient2912)"
         id="path6773" />
      <path
         inkscape:connector-curvature="0"
         d="m 18.446,22.939 21.271,22.696 c 1.395,1.394 3.784,1.211 5.379,-0.383 1.596,-1.594 1.778,-3.981 0.383,-5.376 L 22.768,18.62 18.446,22.939 z m 22.329,17.995 c 0.793,-0.793 2.088,-0.793 2.881,0 0.793,0.792 0.793,2.086 0,2.879 -0.793,0.792 -2.088,0.792 -2.881,0 -0.793,-0.793 -0.793,-2.087 0,-2.879 z"
         style="fill:url(#linearGradient4668);stroke:url(#linearGradient4972);stroke-width:0.99962997;stroke-linecap:round;stroke-linejoin:round;stroke-dashoffset:0.7;enable-background:new"
         id="path6899" />
      <path
         inkscape:connector-curvature="0"
         d="m 22.384,22.603 c 0.555,-0.554 1.57,-0.432 2.276,0.273 l 14.692,13.335 c 0.706,0.705 0.16,2.386 -0.394,2.94 -0.555,0.553 -2.238,1.099 -2.944,0.394 L 22.658,24.875 C 21.952,24.17 21.83,23.156 22.384,22.603 z"
         style="opacity:0.23106001;fill:url(#linearGradient4133)"
         id="rect6533" />
    </g>
  </g>
</svg>
