<?xml version="1.0" encoding="UTF-8" standalone="no"?>
<!-- Created with Inkscape (http://www.inkscape.org/) -->

<svg
   xmlns:dc="http://purl.org/dc/elements/1.1/"
   xmlns:cc="http://creativecommons.org/ns#"
   xmlns:rdf="http://www.w3.org/1999/02/22-rdf-syntax-ns#"
   xmlns:svg="http://www.w3.org/2000/svg"
   xmlns="http://www.w3.org/2000/svg"
   xmlns:sodipodi="http://sodipodi.sourceforge.net/DTD/sodipodi-0.dtd"
   xmlns:inkscape="http://www.inkscape.org/namespaces/inkscape"
   width="16"
   height="16"
   id="svg2"
   version="1.1"
   inkscape:version="0.48.4 r9939"
   sodipodi:docname="terminal_bell.svg"
   inkscape:export-filename="/home/sboddy/Development/terminator/terminator-trunk-ssh/data/icons/HighContrast/16x16/status/terminal-bell.png"
   inkscape:export-xdpi="90"
   inkscape:export-ydpi="90">
  <defs
     id="defs4">
    <inkscape:perspective
       sodipodi:type="inkscape:persp3d"
       inkscape:vp_x="0 : 8 : 1"
       inkscape:vp_y="0 : 1000 : 0"
       inkscape:vp_z="16 : 8 : 1"
       inkscape:persp3d-origin="8 : 5.3333333 : 1"
       id="perspective3833" />
  </defs>
  <sodipodi:namedview
     id="base"
     pagecolor="#848484"
     bordercolor="#666666"
     borderopacity="1.0"
     inkscape:pageopacity="0"
     inkscape:pageshadow="2"
     inkscape:zoom="32"
     inkscape:cx="12.010232"
     inkscape:cy="4.6519834"
     inkscape:document-units="px"
     inkscape:current-layer="layer1"
     showgrid="false"
     inkscape:window-width="1920"
     inkscape:window-height="1006"
     inkscape:window-x="0"
     inkscape:window-y="24"
     inkscape:window-maximized="1"
     inkscape:snap-bbox="true"
     inkscape:snap-nodes="true">
    <inkscape:grid
       type="xygrid"
       id="grid2985"
       empspacing="5"
       visible="true"
       enabled="true"
       snapvisiblegridlinesonly="true" />
  </sodipodi:namedview>
  <metadata
     id="metadata7">
    <rdf:RDF>
      <cc:Work
         rdf:about="">
        <dc:format>image/svg+xml</dc:format>
        <dc:type
           rdf:resource="http://purl.org/dc/dcmitype/StillImage" />
        <dc:title />
      </cc:Work>
    </rdf:RDF>
  </metadata>
  <g
     inkscape:label="Layer 1"
     inkscape:groupmode="layer"
     id="layer1"
     transform="translate(0,-1036.3622)">
    <rect
       style="fill:#ffffff;fill-opacity:1;stroke:none"
       id="rect3035-3"
       width="6"
       height="8.9999485"
       x="5"
       y="1043.3622"
       ry="1.5000261" />
    <rect
       style="fill:#000000;fill-opacity:1;stroke:none"
       id="rect3035"
       width="4"
       height="5.9999657"
       x="6"
       y="1045.3622"
       ry="1.0000174" />
    <path
       sodipodi:type="arc"
       style="fill:#ffffff;fill-opacity:1;stroke:none"
       id="path3033-3-5"
       sodipodi:cx="8"
       sodipodi:cy="7"
       sodipodi:rx="5"
       sodipodi:ry="5"
       d="M 13,7 C 13,9.7614237 10.761424,12 8,12 5.2385763,12 3,9.7614237 3,7 3,4.2385763 5.2385763,2 8,2 c 2.761424,0 5,2.2385763 5,5 z"
       transform="matrix(1.2,0,0,1.2,-1.6,1033.9622)" />
    <path
       sodipodi:type="arc"
       style="fill:#000000;fill-opacity:1;stroke:none"
       id="path3033-3"
       sodipodi:cx="8"
       sodipodi:cy="7"
       sodipodi:rx="5"
       sodipodi:ry="5"
       d="M 13,7 C 13,9.7614237 10.761424,12 8,12 5.2385763,12 3,9.7614237 3,7 3,4.2385763 5.2385763,2 8,2 c 2.761424,0 5,2.2385763 5,5 z"
       transform="translate(0,1035.3622)" />
    <path
       sodipodi:type="arc"
       style="fill:#ffffff;fill-opacity:1;stroke:none"
       id="path3033"
       sodipodi:cx="8"
       sodipodi:cy="7"
       sodipodi:rx="5"
       sodipodi:ry="5"
       d="M 13,7 C 13,9.7614237 10.761424,12 8,12 5.2385763,12 3,9.7614237 3,7 3,4.2385763 5.2385763,2 8,2 c 2.761424,0 5,2.2385763 5,5 z"
       transform="matrix(0.8,0,0,0.8,1.6,1036.7622)" />
    <rect
       style="fill:#ffffff;fill-opacity:1;stroke:none"
       id="rect3866"
       width="4"
       height="5.0000172"
       x="6"
       y="1043.3622"
       ry="1.7382812e-05" />
    <path
       style="fill:#000000;fill-opacity:1;stroke:none"
       d="m 6.0000174,1045.827 c 0.2669189,0.1641 0.7682314,0.4219 0.9999826,0.4571 -1.16e-5,0.6667 2.32e-5,1.4115 -1.74e-5,2.0781 -0.3333252,0 -0.6666689,0 -0.9999826,0 5.8e-6,-0.6667 1.16e-5,-1.8685 1.74e-5,-2.5352 z"
       id="rect3868"
       inkscape:connector-curvature="0"
       sodipodi:nodetypes="ccccc" />
    <path
       style="fill:#000000;fill-opacity:1;stroke:none"
       d="m 9.9999826,1045.827 c -0.2669189,0.1641 -0.7682314,0.4219 -0.9999826,0.4571 1.16e-5,0.6667 -2.32e-5,1.4115 1.74e-5,2.0781 0.3333252,0 0.6666689,0 0.9999826,0 -5.8e-6,-0.6667 -1.16e-5,-1.8685 -1.74e-5,-2.5352 z"
       id="rect3868-7"
       inkscape:connector-curvature="0"
       sodipodi:nodetypes="ccccc" />
    <rect
       style="fill:#ffffff;fill-opacity:1;stroke:none"
       id="rect3913"
       width="2.0850058"
       height="0.78570437"
       x="7.2975202"
       y="1051.8151"
       transform="matrix(0.95922998,-0.2826267,0,1,0,0)"
       ry="0" />
    <path
       style="fill:none;stroke:#000000;stroke-width:1px;stroke-linecap:round;stroke-linejoin:miter;stroke-opacity:1"
       d="m 8,11 c 0,0 0.3093592,-2.3812816 -1.248699,-3.9393398 -2,-2 0.6906407,-2.5026019 0.6906407,-1.5026019 0,1 1.0197811,-0.6788398 1.5580583,-0.5580583 0.4599673,0.1032099 1,1 1,1"
       id="path3933"
       inkscape:connector-curvature="0"
       transform="translate(0,1036.3622)"
       sodipodi:nodetypes="csssc" />
  </g>
</svg>
